<svg xmlns="http://www.w3.org/2000/svg" viewBox="0 0 24 24" id="bottom">
  <path d="M8.3789062,11.8852539c.7207031,1.1269531,1.6347656,2.0791016,2.71875,2.831543,.2734375,.1899414,.5878906,.2851562,.9023438,.2851562s.6289062-.0952148,.9033203-.2856445c1.0830078-.7519531,1.9970703-1.7041016,2.7177734-2.8310547l.2216797-.3466797c.296875-.465332,.1611328-1.0834961-.3037109-1.3808594-.4667969-.2993164-1.0839844-.1621094-1.3818359,.3037109l-.2216797,.3466797c-.5234375,.8188477-1.1738281,1.5224609-1.9355469,2.0942383-.7617188-.5717773-1.4121094-1.2753906-1.9355469-2.0942383l-.2216797-.3466797c-.2978516-.4663086-.9160156-.6025391-1.3818359-.3037109-.4648438,.2973633-.6005859,.9155273-.3037109,1.3808594l.2216797,.3466797Z"></path>
  <path d="M12,22c5.5136719,0,10-4.4858398,10-10S17.5136719,2,12,2,2,6.4858398,2,12s4.4863281,10,10,10Zm0-18c4.4111328,0,8,3.5888672,8,8s-3.5888672,8-8,8-8-3.5888672-8-8S7.5888672,4,12,4Z"></path>
</svg>
