<svg xmlns="http://www.w3.org/2000/svg" width="24" height="24" viewBox="0 0 24 24" id="top-arrow">
  <path d="M1.95,12 C1.95,6.44953826 6.44953826,1.95 12,1.95 C17.5504617,1.95 22.05,6.44953826 22.05,12 C22.05,17.5504617 17.5504617,22.05 12,22.05 C6.44953826,22.05 1.95,17.5504617 1.95,12 Z M4.05,12 C4.05,16.3906638 7.60933624,19.95 12,19.95 C16.3906638,19.95 19.95,16.3906638 19.95,12 C19.95,7.60933624 16.3906638,4.05 12,4.05 C7.60933624,4.05 4.05,7.60933624 4.05,12 Z M12,11.45 L9.69246212,13.6924621 C9.28241161,14.1025126 8.61758839,14.1025126 8.20753788,13.6924621 C7.79748737,13.2824116 7.79748737,12.6175884 8.20753788,12.2075379 L11.2075379,9.20753788 C11.6175884,8.79748737 12.2824116,8.79748737 12.6924621,9.20753788 L15.6924621,12.2075379 C16.1025126,12.6175884 16.1025126,13.2824116 15.6924621,13.6924621 C15.2824116,14.1025126 14.6175884,14.1025126 14.2075379,13.6924621 L12,11.45 Z"></path>
</svg>
